<svg width="32" height="32" viewBox="0 0 32 32" fill="none" xmlns="http://www.w3.org/2000/svg">
<g id="Icon">
<g id="Icon_2">
<path d="M16 2.6665C10.8453 2.6665 6.66666 6.84518 6.66666 11.9998C6.66666 13.3812 6.96763 14.696 7.50884 15.879C7.84593 16.6158 8.22787 17.3401 8.59303 18.0297L8.63287 18.105C8.98947 18.7784 9.32902 19.4196 9.63154 20.0645C10.2601 21.4046 10.6667 22.6371 10.6667 23.8806C10.6667 24.6828 11.317 25.3332 12.1192 25.3332H19.8808C20.683 25.3332 21.3333 24.6828 21.3333 23.8806C21.3333 22.6371 21.7399 21.4046 22.3684 20.0645C22.6709 19.4196 23.0105 18.7784 23.3671 18.1051L23.407 18.0297C23.7721 17.3401 24.154 16.6158 24.4911 15.879C25.0324 14.696 25.3333 13.3812 25.3333 11.9998C25.3333 6.84518 21.1546 2.6665 16 2.6665Z" fill="white"/>
<path d="M12 26.6665C11.2636 26.6665 10.6667 27.2635 10.6667 27.9998C10.6667 28.7362 11.2636 29.3332 12 29.3332H20C20.7364 29.3332 21.3333 28.7362 21.3333 27.9998C21.3333 27.2635 20.7364 26.6665 20 26.6665H12Z" fill="white"/>
</g>
</g>
</svg>
